<?xml version="1.0" standalone="no"?>
<!DOCTYPE svg PUBLIC "-//W3C//DTD SVG 20010904//EN"
 "http://www.w3.org/TR/2001/REC-SVG-20010904/DTD/svg10.dtd">
<svg version="1.0" xmlns="http://www.w3.org/2000/svg"
 width="385.000000pt" height="188.000000pt" viewBox="0 0 385.000000 188.000000"
 preserveAspectRatio="xMidYMid meet">
<metadata>
Created by potrace 1.15, written by Peter Selinger 2001-2017
</metadata>
<g transform="translate(0.000000,188.000000) scale(0.100000,-0.100000)"
fill="#000000" stroke="none">
<path d="M0 940 l0 -920 1925 0 1925 0 0 920 0 920 -1925 0 -1925 0 0 -920z
m736 620 c28 -107 67 -255 86 -327 l35 -133 -132 0 -132 0 -12 40 -12 41 -87
-3 -86 -3 -9 -37 -9 -38 -135 0 c-110 0 -134 3 -130 14 3 7 43 156 88 330 l83
316 201 -2 200 -3 51 -195z m648 186 c63 -19 114 -60 137 -110 23 -50 24 -82
3 -141 -15 -45 -15 -46 10 -76 26 -31 46 -87 46 -129 -1 -41 -36 -106 -73
-135 -65 -49 -108 -55 -379 -55 l-248 0 0 330 0 330 228 0 c169 0 241 -4 276
-14z m716 -22 c70 -31 141 -102 173 -172 31 -67 30 -178 -1 -247 -31 -69 -102
-138 -176 -171 -52 -24 -74 -28 -146 -28 -72 0 -94 4 -146 28 -74 33 -145 102
-176 171 -32 70 -32 180 0 250 41 91 138 169 239 195 63 16 166 4 233 -26z
m450 -139 c0 -138 3 -182 15 -205 30 -58 113 -77 169 -41 51 34 55 51 56 244
l0 177 116 0 115 0 -3 -202 c-3 -187 -5 -207 -26 -253 -32 -69 -103 -138 -176
-171 -52 -24 -74 -28 -146 -28 -72 0 -94 4 -146 28 -73 33 -144 102 -176 171
-21 46 -23 66 -26 253 l-3 202 115 0 116 0 0 -175z m1190 70 l0 -105 -110 0
-110 0 0 -225 0 -225 -125 0 -125 0 0 225 0 225 -115 0 -115 0 0 105 0 105
350 0 350 0 0 -105z m-2221 -810 c36 -52 67 -95 71 -95 4 0 35 43 71 95 l64
94 128 1 127 0 0 -330 0 -330 -125 0 -124 0 -3 92 -3 92 -65 -87 c-35 -48 -67
-87 -71 -87 -3 0 -33 39 -65 86 l-59 86 -3 -91 -3 -91 -129 0 -130 0 0 330 0
330 128 0 127 -1 64 -94z m1141 -10 l0 -105 -200 0 c-171 0 -200 -2 -200 -15
0 -12 20 -15 120 -15 l120 0 0 -90 0 -90 -120 0 c-73 0 -120 -4 -120 -10 0 -6
73 -10 200 -10 l200 0 0 -110 0 -110 -330 0 -330 0 0 330 0 330 330 0 330 0 0
-105z"/>
<path d="M291 1703 c-51 -197 -143 -552 -147 -565 -5 -16 5 -18 105 -18 l110
0 11 40 11 40 103 0 103 0 12 -40 12 -40 108 0 109 0 -54 208 c-30 114 -66
253 -80 310 l-26 102 -184 0 -183 0 -10 -37z m259 -355 c0 -5 -29 -8 -65 -8
-36 0 -65 3 -65 8 0 4 14 63 32 131 l32 124 33 -124 c18 -68 33 -127 33 -131z"/>
<path d="M900 1430 l0 -310 243 0 c138 0 258 5 280 11 21 5 53 24 73 41 82 72
87 158 14 241 l-31 36 21 38 c24 44 26 103 6 142 -22 41 -80 88 -123 100 -21
6 -136 11 -260 11 l-223 0 0 -310z m417 158 c29 -27 29 -55 1 -85 -20 -21 -30
-23 -120 -23 l-98 0 0 65 0 65 97 0 c86 0 99 -3 120 -22z m13 -228 c11 -11 20
-29 20 -40 0 -11 -9 -29 -20 -40 -17 -17 -33 -20 -125 -20 l-105 0 0 60 0 60
105 0 c92 0 108 -3 125 -20z"/>
<path d="M1120 1545 l0 -45 88 0 c93 0 112 8 112 45 0 37 -19 45 -112 45 l-88
0 0 -45z"/>
<path d="M1120 1320 l0 -41 91 3 c75 2 94 6 103 21 8 12 8 22 0 35 -9 14 -28
18 -103 20 l-91 3 0 -41z"/>
<path d="M1829 1717 c-73 -31 -122 -69 -159 -125 -40 -60 -53 -113 -47 -187 8
-108 78 -203 186 -254 48 -22 69 -26 146 -26 75 0 98 4 135 24 72 37 123 85
155 142 27 48 30 63 30 139 0 98 -19 144 -86 211 -92 92 -245 124 -360 76z
m197 -172 c34 -22 64 -74 64 -111 0 -17 -10 -46 -23 -65 -60 -90 -181 -88
-237 4 -26 42 -25 86 3 128 44 66 130 86 193 44z"/>
<path d="M1889 1533 c-77 -47 -76 -151 1 -197 78 -45 180 14 180 104 0 49 -65
110 -116 110 -22 0 -51 -8 -65 -17z"/>
<path d="M2342 1543 c3 -184 5 -201 26 -241 33 -61 95 -120 161 -151 47 -22
70 -26 141 -26 71 0 94 4 141 26 66 31 128 90 161 151 21 40 23 57 26 241 l4
197 -96 0 -96 0 0 -167 c0 -149 -2 -172 -20 -200 -56 -92 -177 -94 -237 -4
-22 32 -23 44 -23 202 l0 169 -96 0 -96 0 4 -197z"/>
<path d="M3060 1655 l0 -85 115 0 115 0 0 -225 0 -225 105 0 105 0 0 225 0
225 110 0 110 0 0 85 0 85 -330 0 -330 0 0 -85z"/>
<path d="M1220 610 l0 -310 110 0 109 0 3 118 3 117 69 -102 c38 -57 73 -103
77 -103 4 0 42 48 83 107 l76 107 0 -122 0 -122 105 0 105 0 0 310 0 310 -110
0 -110 0 -72 -105 c-40 -57 -75 -104 -78 -104 -3 0 -38 47 -78 104 l-72 105
-110 0 -110 0 0 -310z"/>
<path d="M2020 610 l0 -310 310 0 310 0 0 90 0 90 -200 0 -200 0 0 30 0 30
120 0 120 0 0 70 0 70 -120 0 -120 0 0 35 0 35 200 0 200 0 0 85 0 85 -310 0
-310 0 0 -310z"/>
</g>
</svg>
